HIERARCHY
ROOT Hips
{
 OFFSET 0.000000 0.000000 0.000000
 CHANNELS 6 Xposition Yposition Zposition Yrotation Xrotation Zrotation
 JOINT Chest
 {
  OFFSET 0.000000 13.173100 -0.061900
  CHANNELS 3 Yrotation Xrotation Zrotation
  JOINT Chest2
  {
   OFFSET 0.000000 8.040800 0.126200
   CHANNELS 3 Yrotation Xrotation Zrotation
   JOINT Chest3
   {
    OFFSET 0.000000 7.994400 0.000000
    CHANNELS 3 Yrotation Xrotation Zrotation
    JOINT Chest4
    {
     OFFSET 0.000000 7.986200 0.000000
     CHANNELS 3 Yrotation Xrotation Zrotation
     JOINT Neck
     {
      OFFSET 0.000000 12.259400 0.000000
      CHANNELS 3 Yrotation Xrotation Zrotation
      JOINT Head
      {
       OFFSET 0.000000 7.518700 0.267100
       CHANNELS 3 Yrotation Xrotation Zrotation
       End Site
       {
        OFFSET 0.000000 13.617700 0.141000
       }
      }
     }
     JOINT RightCollar
     {
      OFFSET -2.983800 8.314300 0.000000
      CHANNELS 3 Yrotation Xrotation Zrotation
      JOINT RightShoulder
      {
       OFFSET -16.133400 0.000000 0.000000
       CHANNELS 3 Yrotation Xrotation Zrotation
       JOINT RightElbow
       {
        OFFSET 0.000000 -29.822100 0.000000
        CHANNELS 3 Yrotation Xrotation Zrotation
        JOINT RightWrist
        {
         OFFSET 0.000000 -24.437700 0.010900
         CHANNELS 3 Yrotation Xrotation Zrotation
         End Site
         {
          OFFSET 0.000000 -18.312300 0.000000
         }
        }
       }
      }
     }
     JOINT LeftCollar
     {
      OFFSET 2.983800 8.314300 0.000000
      CHANNELS 3 Yrotation Xrotation Zrotation
      JOINT LeftShoulder
      {
       OFFSET 16.133400 0.000000 0.000000
       CHANNELS 3 Yrotation Xrotation Zrotation
       JOINT LeftElbow
       {
        OFFSET 0.000000 -29.822100 0.000000
        CHANNELS 3 Yrotation Xrotation Zrotation
        JOINT LeftWrist
        {
         OFFSET 0.000000 -24.437700 0.010900
         CHANNELS 3 Yrotation Xrotation Zrotation
         End Site
         {
          OFFSET 0.000000 -18.312300 0.000000
         }
        }
       }
      }
     }
    }
   }
  }
 }
 JOINT RightHip
 {
  OFFSET -11.206700 0.306200 0.030900
  CHANNELS 3 Yrotation Xrotation Zrotation
  JOINT RightKnee
  {
   OFFSET 0.000000 -57.334900 0.009400
   CHANNELS 3 Yrotation Xrotation Zrotation
   JOINT RightAnkle
   {
    OFFSET 0.000000 -43.376200 0.036600
    CHANNELS 3 Yrotation Xrotation Zrotation
    JOINT RightToe
    {
     OFFSET 0.000000 -10.035500 18.363100
     CHANNELS 3 Yrotation Xrotation Zrotation
     End Site
     {
      OFFSET 0.000000 -1.618500 7.239000
     }
    }
   }
  }
 }
 JOINT LeftHip
 {
  OFFSET 11.206700 0.306200 0.030900
  CHANNELS 3 Yrotation Xrotation Zrotation
  JOINT LeftKnee
  {
   OFFSET 0.000000 -57.334900 0.009400
   CHANNELS 3 Yrotation Xrotation Zrotation
   JOINT LeftAnkle
   {
    OFFSET 0.000000 -43.376200 0.036600
    CHANNELS 3 Yrotation Xrotation Zrotation
    JOINT LeftToe
    {
     OFFSET 0.000000 -10.035500 18.363100
     CHANNELS 3 Yrotation Xrotation Zrotation
     End Site
     {
      OFFSET 0.000000 -1.618500 7.239000
     }
    }
   }
  }
 }
}
MOTION
Frames: 12
Frame Time: 0.008333
-94.575617 64.861960 93.260346 173.362919 -38.490192 -3.152913 3.137219 21.204744 1.986108 0.376805 2.813237 0.323584 0.614085 4.672861 0.546644 2.707357 18.088335 2.470986 1.198239 15.958575 -0.415227 2.376007 -6.314390 -1.228074 -5.328970 -0.053105 -2.681326 -2.794282 -2.944768 2.906632 -152.086586 -78.769433 165.133582 -0.070481 -2.240860 -4.819937 -4.504199 1.726198 0.007206 12.760177 -3.804523 2.228770 106.245160 -61.727804 -132.125823 -16.938531 26.679434 -44.185942 -5.202573 -42.194242 4.601306 -146.018932 86.727610 -141.576136 -1.113932 -10.701034 -2.792378 0.190922 -0.366766 0.093971 -2.007220 -39.229995 5.087992 70.481792 83.962694 60.057339 -5.307507 -13.325299 9.624091 0.358255 1.157795 0.206927
-94.577780 64.849488 93.261537 173.349241 -38.471023 -3.143145 3.141039 21.240188 1.989196 0.373566 2.884975 0.330361 0.622193 4.622096 0.538090 2.713413 18.176164 2.483019 1.191910 15.860948 -0.438340 2.378668 -6.365260 -1.252433 -5.336877 -0.256284 -2.702950 -2.894037 -2.888241 2.912159 -151.965722 -78.393736 165.111731 -0.014111 -1.302267 -3.914940 -4.503389 1.582484 0.032924 12.799513 -3.882889 2.319679 104.531518 -60.813297 -131.115339 -17.481466 26.824414 -46.544334 -5.209581 -42.213005 4.599415 -145.881350 86.721989 -141.431145 -1.108150 -10.704629 -2.812561 0.198051 -0.368900 0.099757 -2.008185 -39.248501 5.094601 70.447740 83.967353 60.015990 -5.305957 -13.317450 9.618240 0.363984 1.150152 0.210569
-94.579095 64.838463 93.260742 173.345560 -38.458684 -3.137558 3.137516 21.279919 1.991938 0.374213 2.892769 0.330849 0.618089 4.690035 0.545572 2.716081 18.164226 2.476200 1.188809 15.806568 -0.455871 2.379725 -6.421415 -1.272968 -5.356457 -0.470504 -2.756483 -2.985653 -2.776196 2.937132 -151.912254 -78.019081 165.164294 0.083895 -0.234369 -2.898843 -4.522061 1.492036 0.084846 12.840457 -3.958430 2.390463 102.939096 -59.907712 -130.198378 -17.950051 26.930987 -48.753847 -5.261837 -42.219961 4.617142 -145.892285 86.722759 -141.464650 -1.098568 -10.711109 -2.829179 0.196967 -0.370335 0.099162 -2.008261 -39.258985 5.095362 70.411168 83.970689 59.977287 -5.310883 -13.310589 9.612788 0.373325 1.144805 0.215501
-94.581131 64.825889 93.261504 173.336404 -38.433731 -3.120294 3.132431 21.303523 1.982909 0.374314 2.900342 0.331457 0.618387 4.719625 0.549756 2.711952 18.166223 2.472430 1.190952 15.749394 -0.472213 2.373657 -6.454934 -1.294001 -5.373018 -0.654627 -2.815438 -3.072958 -2.667594 2.956144 -151.879851 -77.640497 165.233613 0.236172 0.941342 -1.778339 -4.521323 1.407430 0.090007 12.837530 -4.016571 2.520123 101.536100 -59.045606 -129.428082 -18.328852 26.990121 -50.817964 -5.303297 -42.243895 4.630071 -145.996211 86.724125 -141.600349 -1.093448 -10.719471 -2.834593 0.195035 -0.365787 0.095317 -1.995099 -39.281708 5.083677 70.375585 83.965454 59.938868 -5.320092 -13.305287 9.612736 0.371537 1.142191 0.214245
-94.579889 64.812844 93.263414 173.325830 -38.402341 -3.110591 3.128525 21.314896 1.980370 0.373866 2.907231 0.331958 0.617526 4.730287 0.550472 2.705946 18.184509 2.472151 1.197499 15.699875 -0.488142 2.363365 -6.491898 -1.320266 -5.379212 -0.806782 -2.875292 -3.158221 -2.582803 2.964256 -151.834678 -77.255332 165.282175 0.441656 2.199966 -0.549516 -4.515116 1.330113 0.093551 12.809989 -4.065008 2.657215 100.371855 -58.253063 -128.840622 -18.600631 27.003168 -52.728386 -5.355202 -42.273552 4.649375 -146.113896 86.727951 -141.736082 -1.078822 -10.723040 -2.859779 0.187890 -0.369011 0.096121 -1.985767 -39.312080 5.082861 70.383583 83.960045 59.947426 -5.330030 -13.305588 9.612087 0.356971 1.142866 0.211051
-94.576737 64.802334 93.262260 173.321072 -38.386968 -3.105315 3.120380 21.336095 1.978577 0.373260 2.913278 0.332382 0.616465 4.739630 0.551092 2.706786 18.169812 2.466518 1.172741 15.748633 -0.490453 2.376569 -6.586108 -1.355561 -5.391444 -0.917395 -2.938280 -3.240669 -2.502439 2.968064 -151.771646 -76.870732 165.307112 0.691548 3.517229 0.797291 -4.536934 1.281719 0.118827 12.785494 -4.090465 2.783157 99.451683 -57.541195 -128.439513 -18.761718 26.974404 -54.473737 -5.358681 -42.287203 4.641804 -146.198403 86.727931 -141.802943 -1.082092 -10.729547 -2.881276 0.193384 -0.372825 0.098640 -1.979592 -39.324218 5.083287 70.411845 83.951704 59.975863 -5.342120 -13.308322 9.611159 0.359189 1.143088 0.209177
-94.572402 64.792089 93.260767 173.314348 -38.372916 -3.099029 3.112650 21.353114 1.975018 0.372598 2.918326 0.332542 0.615405 4.747321 0.551415 2.709154 18.160251 2.463763 1.159400 15.747866 -0.498480 2.371921 -6.629159 -1.377898 -5.404177 -1.026208 -3.007180 -3.325324 -2.431406 2.967121 -151.689155 -76.493328 165.311428 0.988268 4.868954 2.263406 -4.596925 1.196343 0.180245 12.795959 -4.065355 2.879724 98.737751 -56.908957 -128.199439 -18.830792 26.908637 -56.050871 -5.348803 -42.299903 4.630480 -146.241856 86.726884 -141.823244 -1.083057 -10.738472 -2.904264 0.199101 -0.374336 0.104845 -1.972619 -39.335842 5.084497 70.465746 83.941623 60.030614 -5.354335 -13.310269 9.607350 0.356472 1.141866 0.208543
-94.566983 64.781613 93.259546 173.311714 -38.357068 -3.097167 3.101299 21.365795 1.971642 0.371534 2.922019 0.332299 0.613703 4.752953 0.551015 2.708778 18.179807 2.466145 1.145832 15.717791 -0.513535 2.366926 -6.667134 -1.397117 -5.413228 -1.157053 -3.081502 -3.414322 -2.374811 2.962566 -151.614614 -76.125876 165.324687 1.340730 6.228815 3.844326 -4.618924 1.102657 0.203870 12.778113 -4.061452 3.003253 98.180016 -56.348294 -128.089808 -18.834390 26.818337 -57.450643 -5.336808 -42.314162 4.618534 -146.465149 86.733788 -142.022424 -1.088910 -10.747315 -2.922174 0.199982 -0.378777 0.108426 -1.969670 -39.349911 5.088536 70.495500 83.937336 60.061616 -5.359418 -13.313624 9.604844 0.357867 1.141565 0.204754
-94.579098 64.768627 93.257743 173.342001 -38.328047 -3.038761 3.039184 21.356366 1.885918 0.367818 2.931145 0.332383 0.615608 4.747581 0.550116 2.692098 18.208121 2.463961 1.137803 15.693353 -0.525134 2.362319 -6.702209 -1.415054 -5.416389 -1.270010 -3.156208 -3.504383 -2.339499 2.954850 -151.626059 -75.776494 165.411674 1.750124 7.566652 5.555664 -4.613964 1.037391 0.215461 12.752737 -4.079487 3.131874 97.727932 -55.845590 -128.069637 -18.789097 26.721072 -58.677660 -5.279775 -42.370052 4.465675 -147.953088 86.719812 -143.498824 -1.042628 -10.773101 -2.898775 0.136977 -0.389593 0.074289 -1.929752 -39.377999 4.994920 70.499543 83.937037 60.065033 -5.405013 -13.319670 9.590725 0.401299 1.151683 0.227985
-94.574318 64.758625 93.255539 173.345049 -38.316638 -3.037200 3.016539 21.377321 1.874900 0.382658 2.907350 0.332545 0.611178 4.757014 0.550215 2.672957 18.232508 2.461472 1.136515 15.665395 -0.537086 2.346611 -6.734404 -1.429645 -5.422193 -1.366406 -3.234938 -3.593729 -2.331011 2.943310 -151.819030 -75.449326 165.646073 2.216117 8.856484 7.429421 -4.607781 0.975047 0.226812 12.737762 -4.101557 3.253618 97.339494 -55.376398 -128.081242 -18.711331 26.647208 -59.761619 -5.259729 -42.381609 4.445420 -148.103495 86.718880 -143.626538 -1.038021 -10.780643 -2.903435 0.132133 -0.390071 0.070805 -1.932687 -39.388890 4.997621 70.507602 83.939749 60.070203 -5.402623 -13.318697 9.590773 0.400985 1.148308 0.226300
-94.570667 64.747523 93.254569 173.342874 -38.298531 -3.030526 2.994048 21.386038 1.858868 0.383903 2.907035 0.332494 0.588230 4.780683 0.545901 2.681582 18.216560 2.453169 1.159553 15.637394 -0.542451 2.307088 -6.765072 -1.439389 -5.423526 -1.440082 -3.308579 -3.685859 -2.345852 2.927925 -152.255200 -75.137844 166.078326 2.756228 10.086450 9.488463 -4.639741 0.837829 0.268046 12.776063 -4.042082 3.360936 96.970389 -54.907303 -128.078437 -18.620852 26.634749 -60.708574 -5.239433 -42.401698 4.422004 -148.364922 86.722172 -143.862962 -1.038730 -10.788227 -2.910078 0.130957 -0.390566 0.065007 -1.928265 -39.407256 4.994925 70.514106 83.941315 60.076808 -5.400839 -13.319731 9.590584 0.397842 1.147853 0.224822
-94.568330 64.738294 93.251200 173.359495 -38.293165 -3.031899 2.964059 21.397653 1.842122 0.364899 2.927537 0.329222 0.610548 4.754481 0.547544 2.659190 18.234611 2.447810 1.151307 15.618481 -0.551472 2.290570 -6.806246 -1.453888 -5.408503 -1.484447 -3.345831 -3.801693 -2.388101 2.879186 -152.920421 -74.828023 166.700534 3.401026 11.253414 11.743675 -4.623334 0.784076 0.274629 12.773344 -4.074117 3.474082 96.563691 -54.424477 -128.049731 -18.522207 26.691403 -61.482616 -5.238557 -42.396244 4.384652 -148.846019 86.729158 -144.328983 -1.004181 -10.835801 -2.906668 0.096204 -0.362805 0.045069 -1.934117 -39.411743 4.989086 70.546956 83.941430 60.106366 -5.404773 -13.323898 9.589201 0.395556 1.148626 0.226846
